<?xml version="1.0" encoding="UTF-8"?>
<svg version="1.1" xmlns="http://www.w3.org/2000/svg" width="50" height="62">
<path d="M0 0 C16.5 0 33 0 50 0 C50 20.46 50 40.92 50 62 C33.5 62 17 62 0 62 C0 41.54 0 21.08 0 0 Z " fill="#FBFCFB" transform="translate(0,0)"/>
<path d="M0 0 C2.625 0.375 2.625 0.375 5 1 C5 1.99 5 2.98 5 4 C4.01 4.33 3.02 4.66 2 5 C0.28923703 11.55792472 1.78436087 16.11233981 5 22 C8.84136136 27.52966339 12.97851114 31.05069934 19 34 C18.6483196 41.75455274 17.25366587 46.97873883 11.375 52.4375 C9 54 9 54 7 54 C7 54.99 7 55.98 7 57 C5.824375 57.433125 5.824375 57.433125 4.625 57.875 C1.90328368 58.84912254 1.90328368 58.84912254 0 61 C-2.43017578 61.22705078 -2.43017578 61.22705078 -5.4453125 61.1953125 C-6.52167969 61.18886719 -7.59804688 61.18242188 -8.70703125 61.17578125 C-10.39892578 61.15064453 -10.39892578 61.15064453 -12.125 61.125 C-13.26066406 61.11597656 -14.39632813 61.10695312 -15.56640625 61.09765625 C-18.37769337 61.07403199 -21.18887262 61.0381601 -24 61 C-24 56.38 -24 51.76 -24 47 C-23.01 47 -22.02 47 -21 47 C-20.95101563 46.26394531 -20.90203125 45.52789062 -20.8515625 44.76953125 C-20.73941406 43.30580078 -20.73941406 43.30580078 -20.625 41.8125 C-20.55539063 40.84957031 -20.48578125 39.88664062 -20.4140625 38.89453125 C-19.99784147 35.98491062 -19.20125904 33.67109226 -18 31 C-17.34 31 -16.68 31 -16 31 C-15.34 29.35 -14.68 27.7 -14 26 C-13.01 26 -12.02 26 -11 26 C-11.33 25.34 -11.66 24.68 -12 24 C-10.02 24 -8.04 24 -6 24 C-6 22.68 -6 21.36 -6 20 C-6 15 -6 10 -6 5 C-5.01 4.67 -4.02 4.34 -3 4 C-2.67 3.34 -2.34 2.68 -2 2 C-1.34 1.34 -0.68 0.68 0 0 Z " fill="#F5FAF9" transform="translate(24,1)"/>
<path d="M0 0 C0.66 0.33 1.32 0.66 2 1 C1.2265625 1.7115625 1.2265625 1.7115625 0.4375 2.4375 C-1.77841664 6.38761227 -1.15750892 9.7158054 0 14 C1.37377545 16.91134719 3.07445029 19.42716098 5 22 C5.39445312 22.55816406 5.78890625 23.11632812 6.1953125 23.69140625 C9.2682996 27.75141238 12.55423739 29.73353279 17 32 C16.72937647 37.96724874 16.08644217 43.34723025 12 48 C5.68306904 53.14411841 0.27040704 55.8270407 -8 55 C-12.70828212 53.11668715 -16.04023259 50.59256343 -18.5 46.125 C-20.36105345 41.69668978 -20.99664687 37.7953291 -19.33984375 33.1484375 C-16.9362229 28.25795351 -13.95114611 26.16050012 -9 24 C-8.01 24.33 -7.02 24.66 -6 25 C-6.56589844 25.33773438 -7.13179687 25.67546875 -7.71484375 26.0234375 C-8.44832031 26.46945313 -9.18179687 26.91546875 -9.9375 27.375 C-10.66839844 27.81585937 -11.39929688 28.25671875 -12.15234375 28.7109375 C-14.13772272 29.8773984 -14.13772272 29.8773984 -15 32 C-15.66112793 36.80734452 -15.6911126 40.00398478 -12.875 44.0625 C-9.50302264 46.33491952 -7.9844505 46.5934288 -4 46 C-0.79523376 44.79255056 -0.79523376 44.79255056 1 42 C1.8828501 35.48898054 0.45378119 31.39443331 -2.5 25.625 C-5.66179553 19.39965462 -7.37806203 14.085434 -6 7 C-4.59930521 3.59831266 -3.06511457 2.04340971 0 0 Z " fill="#1285BF" transform="translate(26,3)"/>
<path d="M0 0 C0.66 0 1.32 0 2 0 C2.103125 0.639375 2.20625 1.27875 2.3125 1.9375 C2.539375 2.618125 2.76625 3.29875 3 4 C3.99 4.33 4.98 4.66 6 5 C6.0825 6.11375 6.165 7.2275 6.25 8.375 C6.57873787 12.05753944 6.57873787 12.05753944 9.0625 13.4375 C9.701875 13.623125 10.34125 13.80875 11 14 C11 14.66 11 15.32 11 16 C11.99 16.33 12.98 16.66 14 17 C14.33333333 18.33333333 14.66666667 19.66666667 15 21 C15.99 21.33 16.98 21.66 18 22 C17.84618186 25.27213132 17.44659117 28.04060046 16 31 C12.84329193 32.99123473 9.59541464 34.05139429 6 35 C6.33 34.01 6.66 33.02 7 32 C7.07029121 29.42734182 7.09370832 26.88358569 7.0625 24.3125 C7.05798828 23.61060547 7.05347656 22.90871094 7.04882812 22.18554688 C7.03706927 20.45699462 7.01913454 18.72848635 7 17 C6.34 17 5.68 17 5 17 C1.74288723 11.22125154 0.30656385 6.62177926 0 0 Z " fill="#0589CD" transform="translate(22,16)"/>
<path d="M0 0 C-0.56589844 0.33773438 -1.13179687 0.67546875 -1.71484375 1.0234375 C-2.44832031 1.46945313 -3.18179687 1.91546875 -3.9375 2.375 C-5.03384766 3.03628906 -5.03384766 3.03628906 -6.15234375 3.7109375 C-8.13772272 4.8773984 -8.13772272 4.8773984 -9 7 C-9.66243064 11.81681708 -9.73398074 14.99339784 -6.8125 19 C-4.03956604 20.97186415 -2.35289282 21.71260919 1 22 C1 22.33 1 22.66 1 23 C-0.98 23 -2.96 23 -5 23 C-5 24.32 -5 25.64 -5 27 C-2.93816367 27.08150744 -0.87538651 27.1394194 1.1875 27.1875 C2.91033203 27.23970703 2.91033203 27.23970703 4.66796875 27.29296875 C10.22894908 26.80401972 13.29993383 23.97414514 17 20 C17.66 20.33 18.32 20.66 19 21 C13.64992556 26.65579298 9.42097679 29.48988729 1.75 30.375 C-3.19013154 29.88098685 -6.31678756 28.30770054 -10 25 C-12.73985188 21.33151485 -13.86622443 17.95315096 -14.5 13.4375 C-13.77991948 8.48694642 -12.27061336 4.80100923 -8.28125 1.63671875 C-3.65199814 -1.21733271 -3.65199814 -1.21733271 0 0 Z " fill="#2481A4" transform="translate(20,28)"/>
<path d="M0 0 C0.66 0.33 1.32 0.66 2 1 C1.2265625 1.7115625 1.2265625 1.7115625 0.4375 2.4375 C-2.25408993 7.23555161 -0.34684443 12.89127975 1 18 C0.01 17.67 -0.98 17.34 -2 17 C-2 15.68 -2 14.36 -2 13 C-2.66 13 -3.32 13 -4 13 C-3.54857225 14.77260631 -3.08859477 16.5430368 -2.625 18.3125 C-2.36976562 19.29863281 -2.11453125 20.28476562 -1.8515625 21.30078125 C-1.08086826 24.1805816 -1.08086826 24.1805816 1 27 C1 27.99 1 28.98 1 30 C1.66 30 2.32 30 3 30 C4.09506492 33.28519475 4.09960608 35.73663415 4.0625 39.1875 C4.05347656 40.27417969 4.04445313 41.36085937 4.03515625 42.48046875 C4.02355469 43.31191406 4.01195312 44.14335938 4 45 C0.28125 47.046875 0.28125 47.046875 -2.25 46.625 C-2.8275 46.41875 -3.405 46.2125 -4 46 C-3.360625 45.71125 -2.72125 45.4225 -2.0625 45.125 C0.15206079 44.17176549 0.15206079 44.17176549 1 42 C1.8828501 35.48898054 0.45378119 31.39443331 -2.5 25.625 C-5.66179553 19.39965462 -7.37806203 14.085434 -6 7 C-4.59930521 3.59831266 -3.06511457 2.04340971 0 0 Z " fill="#2182AD" transform="translate(26,3)"/>
<path d="M0 0 C0.99 0.33 1.98 0.66 3 1 C3.66 4.3 4.32 7.6 5 11 C5.66 11 6.32 11 7 11 C7.28875 11.969375 7.5775 12.93875 7.875 13.9375 C8.64214682 17.10664203 8.64214682 17.10664203 11 18 C11 18.66 11 19.32 11 20 C11.66 20 12.32 20 13 20 C13 20.66 13 21.32 13 22 C14.4540625 22.433125 14.4540625 22.433125 15.9375 22.875 C19 24 19 24 20 26 C20.14601706 27.66234811 20.22089834 29.33150507 20.25 31 C20.27578125 31.886875 20.3015625 32.77375 20.328125 33.6875 C20.21984375 34.450625 20.1115625 35.21375 20 36 C19.01 36.66 18.02 37.32 17 38 C17.33 34.37 17.66 30.74 18 27 C16.824375 26.360625 15.64875 25.72125 14.4375 25.0625 C6.93632769 20.35431738 2.38672883 13.42374881 0 5 C-0.1875 2 -0.1875 2 0 0 Z " fill="#C9F3FA" transform="translate(24,8)"/>
<path d="M0 0 C0.99 0.33 1.98 0.66 3 1 C3 1.66 3 2.32 3 3 C2.360625 3.2475 1.72125 3.495 1.0625 3.75 C-1.09257839 4.79962819 -1.09257839 4.79962819 -1.8125 6.6875 C-2.07086903 9.87405141 -1.46714441 12.84677521 -1 16 C-1.33 16.66 -1.66 17.32 -2 18 C-1.01 18 -0.02 18 1 18 C1 18.66 1 19.32 1 20 C2.65 20 4.3 20 6 20 C6 20.33 6 20.66 6 21 C2.16526716 21.35671933 0.44657125 21.29771416 -2.8125 19.125 C-5.74617393 16.27514533 -6.18541445 14.66728434 -6.3125 10.6875 C-6.28413514 7.16458401 -6.06650675 6.10641081 -4.125 3 C-2 1 -2 1 0 0 Z " fill="#DDF4F7" transform="translate(16,29)"/>
<path d="M0 0 C2.625 0.375 2.625 0.375 5 1 C5 1.99 5 2.98 5 4 C4.01 3.67 3.02 3.34 2 3 C-0.18298142 3.59145334 -0.18298142 3.59145334 -2 5 C-4.43010181 12.02377812 -3.43793542 20.14330664 -1 27 C-1.99 27 -2.98 27 -4 27 C-5.7041678 21.84053135 -6.22225605 17.5574667 -6.125 12.0625 C-6.11597656 11.37865234 -6.10695313 10.69480469 -6.09765625 9.99023438 C-6.07438958 8.32666713 -6.03853167 6.66328369 -6 5 C-5.01 4.67 -4.02 4.34 -3 4 C-2.67 3.34 -2.34 2.68 -2 2 C-1.34 1.34 -0.68 0.68 0 0 Z " fill="#C7EEF5" transform="translate(24,1)"/>
<path d="M0 0 C1.0828125 1.11375 1.0828125 1.11375 2.1875 2.25 C6.15604576 6.13035585 10.18140331 9.24651618 15 12 C14.40546697 21.59453303 14.40546697 21.59453303 11 25 C11.37125 23.1746875 11.37125 23.1746875 11.75 21.3125 C12.16703783 17.97619732 12.18009352 17.28681561 10.3125 14.3125 C9.549375 13.549375 8.78625 12.78625 8 12 C7.01 10.63875 7.01 10.63875 6 9.25 C3.93375554 6.92547498 3.03103507 6.32475376 0 6 C0 4.02 0 2.04 0 0 Z " fill="#328AB1" transform="translate(28,23)"/>
<path d="M0 0 C0.66 0 1.32 0 2 0 C2.103125 0.639375 2.20625 1.27875 2.3125 1.9375 C2.539375 2.618125 2.76625 3.29875 3 4 C3.99 4.33 4.98 4.66 6 5 C6.0825 6.11375 6.165 7.2275 6.25 8.375 C6.57873787 12.05753944 6.57873787 12.05753944 9.0625 13.4375 C9.701875 13.623125 10.34125 13.80875 11 14 C10.67 14.66 10.34 15.32 10 16 C9.34 16 8.68 16 8 16 C7.67 17.32 7.34 18.64 7 20 C7 19.01 7 18.02 7 17 C6.34 17 5.68 17 5 17 C1.74288723 11.22125154 0.30656385 6.62177926 0 0 Z " fill="#0E87C5" transform="translate(22,16)"/>
<path d="M0 0 C0.66 0.33 1.32 0.66 2 1 C-3.35078176 6.65654072 -7.59562232 9.58449267 -15.3125 10.3125 C-19.93458734 9.92079768 -22.15230342 8.51278144 -26 6 C-25.01 5.67 -24.02 5.34 -23 5 C-22.67 4.34 -22.34 3.68 -22 3 C-22 4.32 -22 5.64 -22 7 C-19.93816367 7.08150744 -17.87538651 7.1394194 -15.8125 7.1875 C-14.08966797 7.23970703 -14.08966797 7.23970703 -12.33203125 7.29296875 C-6.77105092 6.80401972 -3.70006617 3.97414514 0 0 Z " fill="#388DB0" transform="translate(37,48)"/>
<path d="M0 0 C0.99 0.33 1.98 0.66 3 1 C3 1.99 3 2.98 3 4 C3.66 4 4.32 4 5 4 C6.09506492 7.28519475 6.09960608 9.73663415 6.0625 13.1875 C6.05347656 14.27417969 6.04445313 15.36085938 6.03515625 16.48046875 C6.02355469 17.31191406 6.01195312 18.14335938 6 19 C2.28125 21.046875 2.28125 21.046875 -0.25 20.625 C-1.11625 20.315625 -1.11625 20.315625 -2 20 C-1.360625 19.71125 -0.72125 19.4225 -0.0625 19.125 C2.15206079 18.17176549 2.15206079 18.17176549 3 16 C3.64777778 9.88348286 2.78156819 5.44723771 0 0 Z " fill="#2787B2" transform="translate(24,29)"/>
<path d="M0 0 C2.64 0 5.28 0 8 0 C8 0.66 8 1.32 8 2 C7.31292969 2.29132812 6.62585937 2.58265625 5.91796875 2.8828125 C0.01191136 5.50274496 0.01191136 5.50274496 -4.125 10.3125 C-4.41375 11.199375 -4.7025 12.08625 -5 13 C-5.33 13 -5.66 13 -6 13 C-6 11.02 -6 9.04 -6 7 C-5.34 7 -4.68 7 -4 7 C-3.34 5.35 -2.68 3.7 -2 2 C-1.01 2 -0.02 2 1 2 C0.67 1.34 0.34 0.68 0 0 Z " fill="#E0F2F6" transform="translate(12,25)"/>
<path d="M0 0 C-3.27301919 2.96909598 -5.38065762 3.34354794 -9.75 3.1875 C-11.22726563 3.14689453 -11.22726563 3.14689453 -12.734375 3.10546875 C-13.85585938 3.05326172 -13.85585938 3.05326172 -15 3 C-15 2.34 -15 1.68 -15 1 C-9.69276568 -0.42705634 -5.46108889 -1.4002792 0 0 Z " fill="#0589CD" transform="translate(30,52)"/>
<path d="M0 0 C0.33 0 0.66 0 1 0 C1.32152515 3.53677664 1.4131192 5.3962104 -0.625 8.375 C-3.6037896 10.4131192 -5.46322336 10.32152515 -9 10 C-7.37660195 8.29115995 -5.70680947 6.62553283 -4 5 C-3.34 5 -2.68 5 -2 5 C-1.34 3.35 -0.68 1.7 0 0 Z " fill="#C4EEF8" transform="translate(40,46)"/>
<path d="M0 0 C0.33 0 0.66 0 1 0 C1.09796875 0.58007812 1.1959375 1.16015625 1.296875 1.7578125 C2.491502 7.99870874 4.41856281 12.41856281 9 17 C6.1875 16.9375 6.1875 16.9375 3 16 C-0.27573653 10.75882155 -0.3710835 6.06103053 0 0 Z " fill="#CCF0F9" transform="translate(5,39)"/>
<path d="M0 0 C0 1.98 0 3.96 0 6 C-0.99 6 -1.98 6 -3 6 C-3 7.32 -3 8.64 -3 10 C-4.65 10 -6.3 10 -8 10 C-8 9.34 -8 8.68 -8 8 C-6.66666667 6.66666667 -5.33333333 5.33333333 -4 4 C-3.67 3.01 -3.34 2.02 -3 1 C-1 0 -1 0 0 0 Z " fill="#FCFAF1" transform="translate(26,37)"/>
<path d="M0 0 C2 2 2 2 2.265625 4.05859375 C2.26046875 4.84363281 2.2553125 5.62867188 2.25 6.4375 C2.25515625 7.21996094 2.2603125 8.00242187 2.265625 8.80859375 C2 11 2 11 0 14 C-0.66 14 -1.32 14 -2 14 C-1.7834375 13.0409375 -1.7834375 13.0409375 -1.5625 12.0625 C-0.82763202 8.06155212 -0.41418889 4.04495104 0 0 Z " fill="#C5F0F9" transform="translate(26,34)"/>
<path d="M0 0 C-0.83144531 0.4021875 -0.83144531 0.4021875 -1.6796875 0.8125 C-6.13491853 3.14090982 -6.13491853 3.14090982 -8.9765625 7.11328125 C-9.59297952 9.54249417 -9.59297952 9.54249417 -10 13 C-10.12375 12.360625 -10.2475 11.72125 -10.375 11.0625 C-10.58125 10.381875 -10.7875 9.70125 -11 9 C-11.66 8.67 -12.32 8.34 -13 8 C-10.5664615 2.84662436 -6.02331717 -2.00777239 0 0 Z " fill="#618C95" transform="translate(20,28)"/>
<path d="M0 0 C0.515625 0.165 1.03125 0.33 1.5625 0.5 C6.7818216 1.57063007 11.81517458 1.01167325 17 0 C17 0.66 17 1.32 17 2 C13.99686252 3.50156874 11.20932478 3.09281204 7.875 3.0625 C6.59367187 3.05347656 5.31234375 3.04445312 3.9921875 3.03515625 C2.51105469 3.01775391 2.51105469 3.01775391 1 3 C0.67 2.01 0.34 1.02 0 0 Z " fill="#CAF1F9" transform="translate(14,56)"/>
<path d="M0 0 C3.84056474 4.18970699 5 9.43036195 5 15 C2.24671902 12.62216643 1.03055089 10.48801839 0 7 C-0.07646165 4.6679198 -0.09143299 2.33154122 0 0 Z " fill="#3787AD" transform="translate(6,38)"/>
<path d="M0 0 C0.99 0.33 1.98 0.66 3 1 C3.33 4.96 3.66 8.92 4 13 C0.625 8.5 0.625 8.5 0.3125 4.25 C0.24675781 3.45078125 0.18101563 2.6515625 0.11328125 1.828125 C0.07589844 1.22484375 0.03851562 0.6215625 0 0 Z " fill="#C5F0F7" transform="translate(24,8)"/>
<path d="M0 0 C0.66 0.33 1.32 0.66 2 1 C1.2884375 1.8353125 1.2884375 1.8353125 0.5625 2.6875 C-1.12395996 5.18346074 -1.58953107 7.0446237 -2 10 C-3.32 10 -4.64 10 -6 10 C-5.58578031 5.16743695 -3.53586014 3.17320782 0 0 Z " fill="#4A8196" transform="translate(26,3)"/>
<path d="M0 0 C0.66 0.33 1.32 0.66 2 1 C-1.08065427 4.25669165 -3.89806503 7.10679924 -8 9 C-10.15234375 8.5703125 -10.15234375 8.5703125 -12 8 C-11.20335938 7.63648438 -11.20335938 7.63648438 -10.390625 7.265625 C-6.26007376 5.30587441 -3.02889453 3.53371028 0 0 Z " fill="#2A7CA4" transform="translate(37,48)"/>
<path d="M0 0 C0.99 0.495 0.99 0.495 2 1 C2 1.66 2 2.32 2 3 C2.66 3 3.32 3 4 3 C4.28875 3.94875 4.5775 4.8975 4.875 5.875 C5.76825109 9.05211578 5.76825109 9.05211578 8 11 C5.77888714 10.61704951 4.19619717 10.13079812 2.3125 8.875 C0.36694189 6.09563127 0.31331211 3.32110837 0 0 Z " fill="#DCF8FB" transform="translate(27,16)"/>
<path d="M0 0 C0.66 0.99 1.32 1.98 2 3 C1.67 3.66 1.34 4.32 1 5 C1.99 5 2.98 5 4 5 C4 5.66 4 6.32 4 7 C5.65 7 7.3 7 9 7 C9 7.33 9 7.66 9 8 C5.14521782 8.35858439 3.42240542 8.2754818 0.125 6.125 C-0.57625 5.42375 -1.2775 4.7225 -2 4 C-2 3.34 -2 2.68 -2 2 C-1.34 2 -0.68 2 0 2 C0 1.34 0 0.68 0 0 Z " fill="#C2ECF6" transform="translate(13,42)"/>
<path d="M0 0 C0.66 0 1.32 0 2 0 C2.103125 0.639375 2.20625 1.27875 2.3125 1.9375 C2.539375 2.618125 2.76625 3.29875 3 4 C3.99 4.33 4.98 4.66 6 5 C5.67 6.32 5.34 7.64 5 9 C4.67 8.34 4.34 7.68 4 7 C1.98330173 5.86649466 1.98330173 5.86649466 0 5 C0 3.35 0 1.7 0 0 Z " fill="#1883BD" transform="translate(22,16)"/>
<path d="M0 0 C0.33 0 0.66 0 1 0 C1.36923077 5.53846154 1.36923077 5.53846154 -0.5 7.875 C-1.2425 8.431875 -1.2425 8.431875 -2 9 C-2.25 3.375 -2.25 3.375 0 0 Z " fill="#D9F4F9" transform="translate(40,46)"/>
<path d="M0 0 C0.99 0.33 1.98 0.66 3 1 C3.73046875 2.84765625 3.73046875 2.84765625 4.1875 5.0625 C4.34605469 5.79597656 4.50460938 6.52945312 4.66796875 7.28515625 C4.83232422 8.13400391 4.83232422 8.13400391 5 9 C4.01 8.67 3.02 8.34 2 8 C1.26953125 6.15234375 1.26953125 6.15234375 0.8125 3.9375 C0.65394531 3.20402344 0.49539062 2.47054688 0.33203125 1.71484375 C0.22246094 1.14894531 0.11289062 0.58304688 0 0 Z " fill="#2E89AF" transform="translate(22,12)"/>
<path d="M0 0 C1.65 0.33 3.3 0.66 5 1 C5 1.99 5 2.98 5 4 C4.01 3.67 3.02 3.34 2 3 C1.01 3.66 0.02 4.32 -1 5 C-0.67 3.35 -0.34 1.7 0 0 Z " fill="#DCEBEB" transform="translate(24,1)"/>
</svg>
