<?xml version="1.0" encoding="UTF-8"?>
<svg version="1.1" xmlns="http://www.w3.org/2000/svg" width="200" height="200">
<path d="M0 0 C1.27681641 -0.020625 2.55363281 -0.04125 3.86914062 -0.0625 C14.55458636 -0.10645042 22.7666167 1.54716053 31.8125 7.25 C31.8125 7.91 31.8125 8.57 31.8125 9.25 C32.4725 9.25 33.1325 9.25 33.8125 9.25 C36.8125 14.875 36.8125 14.875 36.8125 18.25 C38.17375 18.559375 38.17375 18.559375 39.5625 18.875 C43.61581822 20.5898654 44.7178028 22.44851249 46.8125 26.25 C50.0661798 36.01103941 46.77920859 46.90708338 42.8125 56 C40.98656283 60.28578461 40.12939627 64.5519753 39.375 69.125 C38.17327876 76.34806653 35.8999522 82.59618388 32.8125 89.25 C31.15007661 92.87364836 30.73196288 93.82534972 31.5 97.875 C32.92695876 101.54432252 34.10725099 103.32040827 37.55151367 105.19799805 C38.18806885 105.46652588 38.82462402 105.73505371 39.48046875 106.01171875 C40.20113525 106.32197998 40.92180176 106.63224121 41.66430664 106.9519043 C42.43508545 107.27715088 43.20586426 107.60239746 44 107.9375 C52.77237008 111.73634849 61.32095447 115.86238627 69.8125 120.25 C70.74320313 120.724375 71.67390625 121.19875 72.6328125 121.6875 C80.37021282 125.77325595 86.76830762 131.75782926 89.86767578 140.08496094 C91.38864747 145.59545019 91.07798565 151.2582264 91.04296875 156.9296875 C91.04251053 158.13819366 91.04205231 159.34669983 91.0415802 160.59182739 C91.0385684 163.13512154 91.03071436 165.67841401 91.01831055 168.22167969 C90.9999661 172.13222715 90.9978016 176.04253885 90.99804688 179.953125 C90.9931347 182.42448123 90.98730769 184.89583585 90.98046875 187.3671875 C90.97935593 188.54312469 90.9782431 189.71906189 90.97709656 190.93063354 C90.97071671 192.00910553 90.96433685 193.08757751 90.95776367 194.19873047 C90.95395187 195.15246552 90.95014008 196.10620056 90.94621277 197.08883667 C90.8125 199.25 90.8125 199.25 89.8125 200.25 C87.48713144 200.34982565 85.19141179 200.3844301 82.86547852 200.37698364 C81.76269609 200.37932363 81.76269609 200.37932363 80.63763523 200.38171089 C78.15553897 200.38572356 75.67350305 200.38253022 73.19140625 200.37939453 C71.41950443 200.38074845 69.6476029 200.38252834 67.8757019 200.38470459 C63.04939464 200.38927999 58.22310865 200.38748893 53.39680099 200.3843255 C48.35771373 200.38180245 43.31862835 200.38413929 38.27954102 200.38571167 C29.8155891 200.38753353 21.3516459 200.38512663 12.88769531 200.38037109 C3.08734088 200.37492844 -6.71299275 200.37669109 -16.51334667 200.3821975 C-24.91161624 200.38672817 -33.30987952 200.3873794 -41.70814991 200.38475883 C-46.73112644 200.3831958 -51.75409318 200.38300299 -56.77706909 200.38629532 C-61.49819798 200.38917337 -66.21929991 200.38719956 -70.94042587 200.38140106 C-72.678343 200.38007311 -74.41626237 200.38046818 -76.15417862 200.38266373 C-78.51630973 200.38537385 -80.87835308 200.38199582 -83.24047852 200.37698364 C-83.93725425 200.37921436 -84.63402998 200.38144509 -85.35192013 200.38374341 C-90.07335013 200.36414987 -90.07335013 200.36414987 -91.1875 199.25 C-91.29681032 197.54358801 -91.33657791 195.83266978 -91.34863281 194.12280273 C-91.35824036 193.02753769 -91.3678479 191.93227264 -91.37774658 190.80381775 C-91.38199646 189.60914383 -91.38624634 188.41446991 -91.390625 187.18359375 C-91.39632507 185.96100357 -91.40202515 184.73841339 -91.40789795 183.47877502 C-91.41736909 180.88193634 -91.42389027 178.28508553 -91.42773438 175.68823242 C-91.43425906 171.72883881 -91.46838708 167.76981865 -91.5 163.81054688 C-91.50653381 161.28906559 -91.5117828 158.76758058 -91.515625 156.24609375 C-91.5279718 155.06558945 -91.5403186 153.88508514 -91.55303955 152.66880798 C-91.53002709 144.10110651 -90.40113611 137.50315234 -85 130.5625 C-84.47019531 129.85738281 -83.94039062 129.15226563 -83.39453125 128.42578125 C-76.76850877 121.89357856 -67.72871726 118.58539539 -59.375 114.8125 C-52.49597357 111.69848844 -45.62956826 108.56907969 -38.92578125 105.08984375 C-38.05606689 104.63859131 -37.18635254 104.18733887 -36.2902832 103.72241211 C-33.92353911 102.06516915 -33.14776206 100.94917634 -32.1875 98.25 C-31.70186725 92.90803973 -32.62230944 89.60359894 -35.0625 84.875 C-39.23637912 76.25225679 -40.23205564 69.07457652 -40.83984375 59.58203125 C-41.1826063 56.29690251 -41.83196903 53.31154288 -42.6875 50.125 C-45.65735015 38.89249747 -46.51324295 27.47021847 -40.89453125 16.79296875 C-39.44859336 14.7655545 -37.93896114 13.01798436 -36.1875 11.25 C-35.6615625 10.69828125 -35.135625 10.1465625 -34.59375 9.578125 C-24.8896782 0.33179244 -12.65596472 0.05034695 0 0 Z M-31.875 18 C-37.07531789 25.30855487 -38.17075877 32.31128392 -37.1875 41.25 C-36.26136309 43.53407608 -36.26136309 43.53407608 -35.1875 45.25 C-34.506875 44.321875 -33.82625 43.39375 -33.125 42.4375 C-29.4830826 38.09797589 -25.42026111 36.49808457 -19.8125 35.875 C-16.73338602 36.19352903 -15.12751591 36.6232391 -12.375 37.75 C-3.70234944 40.84950398 8.17602803 41.07007786 16.5625 37.125 C19.4922382 35.3711773 21.78176273 33.40993832 24.125 30.9375 C26.8125 28.25 26.8125 28.25 29.48046875 28.08203125 C30.25003906 28.13746094 31.01960938 28.19289063 31.8125 28.25 C32.00585938 29.35859375 32.19921875 30.4671875 32.3984375 31.609375 C32.66113489 33.07297476 32.92417367 34.53651327 33.1875 36 C33.31382812 36.72960937 33.44015625 37.45921875 33.5703125 38.2109375 C34.23084074 41.8438428 34.88697662 45.0687005 36.8125 48.25 C40.09281178 43.32953232 41.29776332 36.90863001 40.515625 31.01171875 C39.86195731 28.88680637 39.86195731 28.88680637 37.8125 26.25 C36.636875 25.755 35.46125 25.26 34.25 24.75 C33.115625 24.255 31.98125 23.76 30.8125 23.25 C30.1111716 20.92684969 29.44764826 18.59210921 28.8125 16.25 C24.43911017 10.64008626 18.5423579 8.71787808 11.8125 7.25 C8.19562786 6.84075553 4.63756834 6.77273815 1 6.8125 C0.0409375 6.81862305 -0.918125 6.82474609 -1.90625 6.83105469 C-13.43202129 7.08381283 -23.57241622 9.50433288 -31.875 18 Z M19.17578125 43.1796875 C8.40847526 48.05612029 -3.4147075 47.30379174 -14.50390625 43.90625 C-17.53457936 43.1651247 -20.07791301 43.0121081 -23.1875 43.25 C-27.59878618 46.01786584 -30.10424675 48.64059895 -31.71484375 53.76171875 C-34.4460841 68.14023198 -30.09973095 81.27662396 -22.1875 93.25 C-16.75019241 100.1954659 -10.82926427 107.69840857 -1.75 109.3125 C4.10842026 109.64073068 8.01138907 107.40276391 12.55078125 103.9140625 C22.73671642 94.68818099 30.42237437 80.33702727 32.28515625 66.8203125 C32.70570225 57.30950296 30.01794785 49.06498159 26.8125 40.25 C23.83586356 40.25 21.75771537 41.782649 19.17578125 43.1796875 Z M-25.1875 102.25 C-26.5075 104.56 -27.8275 106.87 -29.1875 109.25 C-20.80907108 117.36435236 -11.16254125 123.60685151 0.6875 124.5625 C10.52101875 124.24040016 18.77416275 119.03638472 25.9375 112.625 C28.02550272 110.48451815 28.02550272 110.48451815 27.8125 108.1875 C26.68939561 106.01148524 25.29815888 104.19185305 23.8125 102.25 C23.33941406 102.76949219 22.86632812 103.28898437 22.37890625 103.82421875 C15.53838987 111.03809664 10.02057567 115.45789583 -0.1875 115.875 C-10.37649323 115.45867555 -15.88824807 111.08907797 -22.65625 103.82421875 C-23.1615625 103.30472656 -23.666875 102.78523438 -24.1875 102.25 C-24.5175 102.25 -24.8475 102.25 -25.1875 102.25 Z M-45.8125 117.25 C-46.51890625 117.6315625 -47.2253125 118.013125 -47.953125 118.40625 C-49.69992267 119.35046495 -51.44397411 120.29975718 -53.1875 121.25 C-54.51136034 133.02428168 -54.51136034 133.02428168 -50.625 143.5625 C-50.08617187 144.12195313 -49.54734375 144.68140625 -48.9921875 145.2578125 C-46.60506324 147.89294967 -44.94725286 150.83770104 -43.25 153.9375 C-42.64285156 155.01386719 -42.03570312 156.09023437 -41.41015625 157.19921875 C-40.0748346 160.53112357 -40.02060825 161.90844634 -41.1875 165.25 C-42.75069458 167.33425943 -43.8014342 168.10961244 -46.25 169 C-48.1875 169.25 -48.1875 169.25 -50.1875 168.25 C-50.375 165.875 -50.375 165.875 -50.1875 163.25 C-49.1975 162.59 -48.2075 161.93 -47.1875 161.25 C-48.47268553 158.93367725 -49.76521266 156.62203058 -51.0625 154.3125 C-51.42730469 153.65314453 -51.79210938 152.99378906 -52.16796875 152.31445312 C-54.04167898 148.67063631 -54.04167898 148.67063631 -57.1875 146.25 C-60.1575 151.2 -63.1275 156.15 -66.1875 161.25 C-65.1975 161.91 -64.2075 162.57 -63.1875 163.25 C-63 165.875 -63 165.875 -63.1875 168.25 C-66.1875 169.25 -66.1875 169.25 -68.8125 168.4375 C-71.1875 167.25 -71.1875 167.25 -72.1875 165.25 C-72.97907058 158.62270163 -70.71434255 154.84015077 -67.3125 149.4375 C-66.85230469 148.67501953 -66.39210938 147.91253906 -65.91796875 147.12695312 C-62.55952381 141.62202381 -62.55952381 141.62202381 -60.1875 139.25 C-60.04252015 136.66935871 -60.00072455 134.20056116 -60.0625 131.625 C-60.07152344 130.91859375 -60.08054687 130.2121875 -60.08984375 129.484375 C-60.11342397 127.73943902 -60.14929539 125.99467705 -60.1875 124.25 C-73.4317509 129.61044252 -73.4317509 129.61044252 -82.1875 140.25 C-87.04436098 157.24901341 -84.1875 175.57075919 -84.1875 193.25 C-29.0775 193.25 26.0325 193.25 82.8125 193.25 C86.76377075 161.47493009 86.76377075 161.47493009 77.05859375 134.11328125 C71.79191561 129.59736068 66.24134697 126.81444815 59.8125 124.25 C59.65000546 126.66936317 59.53152183 129.07781859 59.4375 131.5 C59.38722656 132.18191406 59.33695313 132.86382812 59.28515625 133.56640625 C59.1556629 135.86634637 59.1556629 135.86634637 59.8125 139.25 C63.34719815 142.3748497 63.34719815 142.3748497 67.8125 143.25 C71.80857634 155.54561951 71.80857634 155.54561951 68.828125 161.6328125 C66.66823432 165.07202305 64.7295187 166.81233198 61.0625 168.5625 C55.48366644 169.74263787 51.46338746 169.13658771 46.4375 166.4375 C43.07665535 163.63679613 41.99733795 161.79318198 41.4765625 157.4453125 C41.34161627 146.83853857 41.34161627 146.83853857 45.8125 142.25 C47.7925 141.26 49.7725 140.27 51.8125 139.25 C51.8125 132.98 51.8125 126.71 51.8125 120.25 C46.8625 117.94 41.9125 115.63 36.8125 113.25 C31.8125 117.50464401 31.8125 117.50464401 30.8125 121.25 C30.86323411 122.89894695 30.98589312 124.54619132 31.15234375 126.1875 C31.2925293 127.65509766 31.2925293 127.65509766 31.43554688 129.15234375 C31.53931641 130.17457031 31.64308594 131.19679687 31.75 132.25 C32.52595739 139.94949982 32.95821796 147.50885256 32.8125 155.25 C27.52551461 154.8000438 23.64394997 153.42250531 18.92578125 150.9921875 C16.35586268 150.0896283 15.33944157 150.3053145 12.8125 151.25 C11.13114879 153.69189309 9.67387765 156.04137041 8.25 158.625 C7.48194798 159.98928606 6.70993375 161.35135059 5.93359375 162.7109375 C5.5977124 163.31728027 5.26183105 163.92362305 4.91577148 164.54833984 C3.71703606 166.39724136 2.47937285 167.80980654 0.8125 169.25 C-1.12109375 169.36328125 -1.12109375 169.36328125 -3.1875 168.25 C-4.71337015 165.98608901 -5.99537301 163.84280608 -7.25 161.4375 C-10.36805668 155.62178009 -10.36805668 155.62178009 -14.1875 150.25 C-18.05510404 151.08315733 -21.33298122 152.68109604 -24.87109375 154.41015625 C-27.45745108 155.34787434 -29.4579665 155.31083235 -32.1875 155.25 C-32.16655273 154.19087402 -32.14560547 153.13174805 -32.12402344 152.04052734 C-32.05136615 148.09340043 -32.00560746 144.14633208 -31.96777344 140.19873047 C-31.94771631 138.49355106 -31.92046343 136.78843994 -31.88574219 135.08349609 C-31.83696139 132.62580476 -31.81447281 130.16902634 -31.796875 127.7109375 C-31.77622986 126.95444916 -31.75558472 126.19796082 -31.73431396 125.41854858 C-31.73210026 120.14084684 -32.74427996 117.30070587 -36.1875 113.25 C-39.73914206 113.25 -42.74954284 115.57724111 -45.8125 117.25 Z M-18.1875 127.25 C-16.92532501 130.56566742 -15.50767726 133.61679376 -13.7265625 136.68359375 C-13.25476563 137.49763672 -12.78296875 138.31167969 -12.296875 139.15039062 C-11.80703125 139.98763672 -11.3171875 140.82488281 -10.8125 141.6875 C-10.33039063 142.52087891 -9.84828125 143.35425781 -9.3515625 144.21289062 C-5.50425805 150.88360793 -5.50425805 150.88360793 -1.1875 157.25 C-0.5275 157.25 0.1325 157.25 0.8125 157.25 C2.49842497 154.91966318 2.49842497 154.91966318 4.21875 151.921875 C4.88003906 150.81199219 5.54132813 149.70210937 6.22265625 148.55859375 C6.91930929 147.37241842 7.61592348 146.18622027 8.3125 145 C9.00847235 143.82904513 9.70507931 142.65846719 10.40234375 141.48828125 C14.29943404 134.97404373 14.29943404 134.97404373 17.8125 128.25 C16.08966797 128.73533203 16.08966797 128.73533203 14.33203125 129.23046875 C10.00649686 130.30638241 5.94428751 130.59524253 1.5 130.5625 C0.39893921 130.56056641 0.39893921 130.56056641 -0.72436523 130.55859375 C-6.85644721 130.45111942 -12.40848015 129.34692297 -18.1875 127.25 Z M-25.1875 132.25 C-25.1875 136.87 -25.1875 141.49 -25.1875 146.25 C-22.8775 145.26 -20.5675 144.27 -18.1875 143.25 C-20.1675 139.62 -22.1475 135.99 -24.1875 132.25 C-24.5175 132.25 -24.8475 132.25 -25.1875 132.25 Z M23.8125 132.25 C21.8325 135.88 19.8525 139.51 17.8125 143.25 C21.61677492 145.4513866 21.61677492 145.4513866 25.8125 146.25 C25.4825 141.63 25.1525 137.01 24.8125 132.25 C24.4825 132.25 24.1525 132.25 23.8125 132.25 Z M49.8125 148.25 C47.46700326 151.76824511 47.23258597 153.10775694 47.8125 157.25 C49.72916667 160.33333333 49.72916667 160.33333333 52.8125 162.25 C57.14217714 162.4019185 59.04322758 161.92311337 62.3125 159.0625 C64.06826993 156.32149306 64.06826993 156.32149306 63.75 153.125 C62.58865978 149.55196628 62.58865978 149.55196628 59.8125 147.25 C55.80910957 146.14267924 53.26877494 145.78123218 49.8125 148.25 Z " fill="#000000" transform="translate(100.1875,-0.25)"/>
<path d="M0 0 C3.53571429 0.53571429 3.53571429 0.53571429 5 2 C5.07258946 4.18639453 5.08373783 6.37500389 5.0625 8.5625 C5.05347656 9.76003906 5.04445313 10.95757812 5.03515625 12.19140625 C5.02355469 13.11824219 5.01195313 14.04507813 5 15 C6.37285156 14.96519531 6.37285156 14.96519531 7.7734375 14.9296875 C8.96195313 14.91164063 10.15046875 14.89359375 11.375 14.875 C12.55835937 14.85179688 13.74171875 14.82859375 14.9609375 14.8046875 C18 15 18 15 20 17 C19.44444444 21.55555556 19.44444444 21.55555556 18 23 C15.81360547 23.07258946 13.62499611 23.08373783 11.4375 23.0625 C9.64119141 23.04896484 9.64119141 23.04896484 7.80859375 23.03515625 C6.88175781 23.02355469 5.95492187 23.01195313 5 23 C5.02320312 23.91523437 5.04640625 24.83046875 5.0703125 25.7734375 C5.09738281 27.55621094 5.09738281 27.55621094 5.125 29.375 C5.14820312 30.55835937 5.17140625 31.74171875 5.1953125 32.9609375 C5 36 5 36 3 38 C-0.53571429 37.46428571 -0.53571429 37.46428571 -2 36 C-2.07258946 33.81360547 -2.08373783 31.62499611 -2.0625 29.4375 C-2.04896484 27.64119141 -2.04896484 27.64119141 -2.03515625 25.80859375 C-2.02355469 24.88175781 -2.01195312 23.95492187 -2 23 C-2.91523438 23.02320312 -3.83046875 23.04640625 -4.7734375 23.0703125 C-6.55621094 23.09738281 -6.55621094 23.09738281 -8.375 23.125 C-9.55835938 23.14820312 -10.74171875 23.17140625 -11.9609375 23.1953125 C-15 23 -15 23 -17 21 C-17.125 18.375 -17.125 18.375 -17 16 C-14.11584117 14.55792059 -11.58278472 14.90605113 -8.375 14.9375 C-7.18648437 14.94652344 -5.99796875 14.95554687 -4.7734375 14.96484375 C-3.85820312 14.97644531 -2.94296875 14.98804687 -2 15 C-2.02320313 14.08476563 -2.04640625 13.16953125 -2.0703125 12.2265625 C-2.08835937 11.03804687 -2.10640625 9.84953125 -2.125 8.625 C-2.14820313 7.44164063 -2.17140625 6.25828125 -2.1953125 5.0390625 C-2 2 -2 2 0 0 Z " fill="#000000" transform="translate(29,66)"/>
</svg>
